<?xml version="1.0" encoding="utf-8"?>
<!-- Generator: Adobe Illustrator 26.0.1, SVG Export Plug-In . SVG Version: 6.00 Build 0)  -->
<svg version="1.1" id="Layer_1" xmlns="http://www.w3.org/2000/svg" xmlns:xlink="http://www.w3.org/1999/xlink" x="0px" y="0px"
	 viewBox="0 0 700 700" style="enable-background:new 0 0 700 700;" xml:space="preserve">
<style type="text/css">
	.st0{fill:#E0BF00;}
</style>
<g>
	<path class="st0" d="M350.1,109.4c-133,0-240.6,107.6-240.6,240.6s107.6,240.6,240.6,240.6S590.7,483,590.7,350
		S483.1,109.4,350.1,109.4z M297.6,279.1c2.2-11.2,7-20.1,14.9-28s16.8-12.7,28-14.9c5-1.1,14.4-1.1,19.5,0c11.2,2.2,20.1,7,28,14.9
		s12.7,16.8,14.9,28c1.1,5,1.1,14.4,0,19.5c-2.2,11.2-7,20.1-14.9,28s-17.1,12.7-27.8,14.9c-3.7,0.7-12,1.1-15.8,0.7
		c-12.2-1.3-23.2-6.8-31.7-15.3c-7.9-7.9-12.7-16.8-14.9-28C296.5,293.6,296.5,284.2,297.6,279.1L297.6,279.1z M460.2,464.4H240.1
		v-1.1c0-5.5,2.2-19.2,3.9-25.2c0.2-0.9,0.9-2.6,1.3-4.2c0.9-2.6,2.6-7.4,3.5-9.4c3.9-8.5,8.3-16.2,12.9-22.5
		c1.5-2.2,3.1-4.2,3.3-4.4s1.5-1.8,2.8-3.3c2.8-3.3,6.8-7.2,9.8-9.6c1.1-0.9,2.2-1.8,2.4-2.2c0.2-0.2,1.3-1.1,2.4-2
		c1.1-0.7,2-1.5,2.2-1.8c0.7-0.7,7.7-5.2,8.1-5.2c0.2,0,0.4-0.2,0.4-0.2c0.2-0.7,9.4-5.5,15.1-7.7c0.4-0.2,1.3-0.7,2.2-0.9
		c0.9-0.4,1.8-0.7,2.2-0.7s0.7-0.2,0.9-0.2c0.2-0.2,1.3-0.7,2.6-1.1s3.1-0.9,3.7-1.1c4.6-1.5,12.5-3.1,19-3.7
		c4.8-0.4,17.7-0.4,22.5,0c6.8,0.7,14.4,2.2,19,3.7c0.7,0.2,2.4,0.7,3.7,1.1s2.6,0.9,2.6,1.1c0.2,0.2,0.4,0.2,0.9,0.2
		c0.2,0,1.3,0.2,2.2,0.7s1.8,0.9,2.2,0.9c5.5,2.4,14.9,7,15.1,7.7c0,0.2,0.2,0.2,0.4,0.2c0.4,0,7.2,4.6,8.1,5.2
		c0.2,0.2,1.3,0.9,2.2,1.8c1.1,0.7,2.2,1.5,2.4,2c0.2,0.2,1.3,1.3,2.4,2.2c3.1,2.6,7,6.6,9.8,9.6c1.5,1.8,2.8,3.1,2.8,3.3
		c0.2,0.2,1.8,2.2,3.3,4.4c4.6,6.3,9,13.8,12.9,22.5c0.9,2,2.6,6.8,3.5,9.4c0.4,1.5,1.1,3.3,1.3,4.2c1.8,5.9,3.9,19.7,3.9,25.2v1.1
		H460.2z"/>
</g>
</svg>
