<?xml version="1.0" encoding="utf-8"?>
<!-- Generator: Adobe Illustrator 26.0.1, SVG Export Plug-In . SVG Version: 6.00 Build 0)  -->
<svg version="1.1" id="Layer_1" xmlns="http://www.w3.org/2000/svg" xmlns:xlink="http://www.w3.org/1999/xlink" x="0px" y="0px"
	 viewBox="0 0 700 700" style="enable-background:new 0 0 700 700;" xml:space="preserve">
<style type="text/css">
	.st0{fill:#FFFFFF;}
</style>
<path class="st0" d="M338.2,128.4c-5.8,0-11.6,2.5-15.2,5.8c-3.6,3.3-5.5,6.8-7,9.6c-3.1,5.6-4.7,8.2-6.1,8.9L266.6,175h-50.2
	c-16.3,0-29.8,13.5-29.8,29.8v337.1c0,16.3,13.5,29.8,29.8,29.8h267.2c16.3,0,29.8-13.5,29.8-29.8V204.7c0-16.3-13.5-29.8-29.8-29.8
	H437l-44.7-21.4c-2.3-2.5-4.3-6.3-7.8-11.7c-1.9-2.9-4.3-6.2-8.1-9c-3.8-2.8-9.1-4.6-14.5-4.6L338.2,128.4z M338.5,151.7h23.4
	c1,0,0.6,0,0.8,0.2c0.2,0.2,1.1,0.9,2.2,2.7c2.3,3.5,5.2,10.6,11.9,17l1.3,1.2l41.7,20v17.7c0,6.5-4.8,11.3-11.3,11.3h-117
	c-5.6,0-11.3-7-11.3-11.3v-16.1l40.4-20.9c9.9-5.1,13.4-14.1,15.8-18.5C337.5,152.9,338.2,152,338.5,151.7L338.5,151.7z
	 M216.4,197.7h40.4v12.7c0,18.4,14.8,34.6,34.6,34.6h117c19,0,34.6-15.6,34.6-34.6v-12.7h40.4c4.1,0,7.1,2.9,7.1,7.1v337.1
	c0,4.1-2.9,7.1-7.1,7.1H216.4c-4.1,0-7.1-3-7.1-7.1V204.7C209.4,200.6,212.3,197.7,216.4,197.7L216.4,197.7z M390.5,279.6
	l-55.7,58.9l-26.2-24.7l-16,17l43.1,40.7l71.7-75.8L390.5,279.6z M256.7,408.3v23.3h186.7v-23.3H256.7z M256.7,478.3v23.3h186.7
	v-23.3H256.7z"/>
</svg>
