<?xml version="1.0" encoding="UTF-8"?>
<svg width="700pt" height="700pt" version="1.1" viewBox="0 0 700 700" xmlns="http://www.w3.org/2000/svg">
 <g>
  <path d="m197.34 504.66c-7.1953-0.027344-14.012-3.2305-18.621-8.7539-4.6133-5.5195-6.5508-12.797-5.2969-19.883l7.9375-44.648v0.003906c5.1172-28.961 3.4531-58.711-4.8633-86.922l-16.508-55.82c-15.074-50.961-1.8203-106.09 34.773-144.63 36.598-38.535 90.973-54.621 142.64-42.199 51.672 12.426 92.793 51.473 107.87 102.43l16.508 55.824c8.3789 28.188 23.172 54.051 43.211 75.57l30.949 33.137h0.003906c5.7656 6.168 7.9219 14.883 5.707 23.031-2.2188 8.1484-8.4961 14.562-16.594 16.961l-320.74 94.879c-2.2656 0.67578-4.6133 1.0195-6.9727 1.0195zm105.23-389.49c-41.387 0.039063-80.336 19.59-105.09 52.754-24.762 33.164-32.434 76.062-20.707 115.75l16.508 55.816h0.003906c9.082 30.809 10.898 63.309 5.3047 94.941l-7.9375 44.648c-0.4375 2.3398 0.39062 4.7383 2.1797 6.3125 1.7578 1.6172 4.2422 2.1719 6.5195 1.4609l320.75-94.883c2.2773-0.67578 4.043-2.4805 4.6641-4.7734 0.625-2.293 0.015626-4.7422-1.6055-6.4805l-30.949-33.145c-21.898-23.504-38.059-51.758-47.211-82.551l-16.508-55.824c-8.0703-27.141-24.68-50.953-47.367-67.895s-50.238-26.109-78.551-26.137z"/>
  <path d="m233.84 129.54c-2.2344 0.003906-4.3867-0.85156-6.0078-2.3906-7.4648-7.082-12.195-16.566-13.363-26.789-1.1641-10.223 1.3086-20.527 6.9883-29.105 5.6797-8.582 14.199-14.883 24.066-17.805 9.8633-2.9219 20.441-2.2695 29.879 1.832 9.4336 4.1055 17.117 11.406 21.703 20.617 4.5898 9.207 5.7852 19.738 3.375 29.742-1.1328 4.6953-5.8555 7.5859-10.551 6.4531-4.6953-1.1328-7.5859-5.8594-6.4531-10.555 2-8.3281-0.1875-17.109-5.8633-23.523-5.6719-6.4141-14.121-9.6602-22.629-8.6914-8.5117 0.96875-16.016 6.0273-20.102 13.555-2.7578 5.0703-3.7656 10.914-2.8672 16.617 0.89453 5.707 3.6484 10.953 7.832 14.938 2.6016 2.4609 3.4414 6.2617 2.1172 9.5898-1.3242 3.3281-4.543 5.5156-8.125 5.5156z"/>
  <path d="m360.59 509.32c-12.168 0.42578-24.145-3.0977-34.145-10.043-9.9961-6.9453-17.477-16.941-21.32-28.496-1.3086-4.6133 1.3398-9.418 5.9414-10.777 4.5977-1.3594 9.4336 1.2383 10.84 5.8242 3.875 10.117 11.578 18.305 21.445 22.789 9.8633 4.4805 21.098 4.8945 31.27 1.1523 11.055-3.1211 20.582-10.195 26.77-19.875 5.582-8.5391 7.1953-19.074 4.418-28.891-1.3672-4.6328 1.2773-9.4961 5.9062-10.871 4.6328-1.3711 9.5 1.2695 10.879 5.8984 4.2188 14.609 1.9062 30.332-6.3438 43.109-8.4492 13.32-21.496 23.074-36.664 27.41-6.168 1.832-12.562 2.7617-18.996 2.7695z"/>
  <path d="m192.23 424.72c-4.3477-0.003906-8.0352-3.1953-8.6602-7.5-0.62109-4.3008 2.0117-8.4102 6.1797-9.6406l295.25-87.348c2.2344-0.6875 4.6484-0.44922 6.707 0.65625s3.5898 2.9883 4.25 5.2305c0.66406 2.2422 0.40234 4.6523-0.72656 6.6992-1.125 2.0469-3.0273 3.5586-5.2734 4.1953l-295.25 87.348c-0.80469 0.23828-1.6367 0.35938-2.4766 0.35938z"/>
  <path d="m561.02 433.09c-3.1523 0-6.0586-1.6992-7.6094-4.4414-1.5508-2.7422-1.5078-6.1094 0.11328-8.8086 8.2656-13.777 10.93-30.199 7.4492-45.883-3.4844-15.684-12.852-29.43-26.168-38.414-1.9375-1.293-3.2773-3.3047-3.7227-5.5898-0.44922-2.2852 0.03125-4.6523 1.332-6.582 1.3008-1.9297 3.3203-3.2617 5.6055-3.6992s4.6523 0.050781 6.5781 1.3633c17.031 11.488 29.008 29.074 33.457 49.133 4.4531 20.059 1.0469 41.059-9.5234 58.676-1.582 2.6406-4.4336 4.2539-7.5117 4.2461z"/>
 </g>
</svg>
