<?xml version="1.0" encoding="utf-8"?>
<!-- Generator: Adobe Illustrator 26.0.1, SVG Export Plug-In . SVG Version: 6.00 Build 0)  -->
<svg version="1.1" id="Layer_1" xmlns="http://www.w3.org/2000/svg" xmlns:xlink="http://www.w3.org/1999/xlink" x="0px" y="0px"
	 viewBox="0 0 700 700" style="enable-background:new 0 0 700 700;" xml:space="preserve">
<style type="text/css">
	.st0{fill-rule:evenodd;clip-rule:evenodd;fill:#FFFFFF;}
</style>
<path class="st0" d="M402.5,493.1v70c0,9.3,3.7,18.2,10.3,24.7s15.5,10.3,24.7,10.3H525c13.9,0,27.3-5.5,37.1-15.4
	c9.9-9.8,15.4-23.2,15.4-37.1V305.8c0-15.2-6.6-29.7-18.1-39.7l-175-151.5c-19.7-17.1-49-17.1-68.7,0l-175,151.5
	c-11.5,10-18.1,24.5-18.1,39.7v239.8c0,13.9,5.5,27.3,15.4,37.1c9.8,9.9,23.2,15.4,37.1,15.4h87.5c9.3,0,18.2-3.7,24.7-10.3
	s10.3-15.5,10.3-24.7v-70L402.5,493.1z M437.5,563.1v-70c0-19.3-15.7-35-35-35h-105c-19.3,0-35,15.7-35,35v70H175
	c-4.6,0-9.1-1.8-12.4-5.1c-3.3-3.3-5.1-7.7-5.1-12.4V305.8c0-5.1,2.2-9.9,6.1-13.2l175-151.4c6.6-5.7,16.3-5.7,22.9,0l175,151.4
	c3.9,3.3,6.1,8.1,6.1,13.2v239.8c0,4.6-1.8,9.1-5.1,12.4c-3.3,3.3-7.7,5.1-12.4,5.1H437.5z"/>
</svg>
