<?xml version="1.0" encoding="utf-8"?>
<!-- Generator: Adobe Illustrator 26.0.1, SVG Export Plug-In . SVG Version: 6.00 Build 0)  -->
<svg version="1.1" id="Layer_1" xmlns="http://www.w3.org/2000/svg" xmlns:xlink="http://www.w3.org/1999/xlink" x="0px" y="0px"
	 viewBox="0 0 700 700" style="enable-background:new 0 0 700 700;" xml:space="preserve">
<style type="text/css">
	.st0{fill:#FFFFFF;}
</style>
<g>
	<path class="st0" d="M460.5,121.6H135.4c-7,0-13.7,2.8-18.7,7.8c-5,5-7.8,11.7-7.8,18.7v402.8c0,7,2.8,13.7,7.8,18.7
		c5,5,11.7,7.8,18.7,7.8h325.1c7,0,13.7-2.8,18.7-7.8c5-5,7.8-11.7,7.8-18.7V148.1c0-7-2.8-13.7-7.8-18.7
		C474.2,124.4,467.5,121.6,460.5,121.6L460.5,121.6z M469.4,550.9c0,4.9-4,8.9-9,9H135.4c-4.9,0-9-4-9-9V148.1c0-4.9,4-9,9-9h325.1
		c4.9,0,9,4,9,9V550.9z M234.3,280.4c10-0.1,19.2-5.5,24.1-14.2c5-8.7,5-19.3,0-28c-5-8.7-14.1-14.1-24.1-14.2
		c-10,0.1-19.2,5.5-24.1,14.2c-5,8.7-5,19.3,0,28C215.1,274.9,224.3,280.3,234.3,280.4z M234.3,241.5L234.3,241.5
		c5.8,0.1,10.5,4.8,10.5,10.7c0,5.8-4.7,10.6-10.5,10.7c-5.8-0.1-10.5-4.8-10.5-10.7C223.8,246.4,228.5,241.6,234.3,241.5
		L234.3,241.5z M234,341.4c106.1-3,107.8-154.7,1.1-159.3v0c-21.2-0.3-41.7,7.9-56.9,22.7c-15.2,14.9-23.8,35.1-23.9,56.4
		c-0.1,21.2,8.2,41.6,23.1,56.7C192.4,333,212.8,341.4,234,341.4L234,341.4z M234,323.9L234,323.9c-10,0-19.9-2.4-28.8-7.1
		c-0.7-3.1,0-6.4,2-9c2-2.6,5-4.1,8.2-4.3h37.9c3.3,0.2,6.3,1.8,8.2,4.4s2.7,5.9,1.9,9.1C254.4,321.7,244.2,324.1,234,323.9
		L234,323.9z M234,199.6c55-1.7,84.3,67.5,45.5,105.6v0c-1.8-5.6-5.3-10.4-10-13.9c-4.7-3.4-10.4-5.3-16.2-5.3h-37.9
		c-5.8,0-11.4,1.8-16.1,5.2c-4.7,3.4-8.2,8.1-10,13.6C151.3,266.9,179.8,198.9,234,199.6L234,199.6z M432.8,385.6H170.3
		c-4.8-0.1-8.6-4-8.6-8.8s3.8-8.7,8.6-8.8h262.5c4.8,0.1,8.6,4,8.6,8.8S437.5,385.5,432.8,385.6z M432.8,429.3H170.3
		c-4.8-0.1-8.6-4-8.6-8.8s3.8-8.7,8.6-8.8h262.5c4.8,0.1,8.6,4,8.6,8.8S437.5,429.3,432.8,429.3z M432.8,473.1H170.3
		c-4.8-0.1-8.6-4-8.6-8.8s3.8-8.7,8.6-8.8h262.5c4.8,0.1,8.6,4,8.6,8.8S437.5,473,432.8,473.1z M432.8,516.8H170.3
		c-4.8-0.1-8.6-4-8.6-8.8s3.8-8.7,8.6-8.8h262.5c4.8,0.1,8.6,4,8.6,8.8C441.4,512.9,437.5,516.8,432.8,516.8z M432.8,201.8h-87.1
		c-4.8-0.1-8.6-4-8.6-8.8c0-4.8,3.8-8.7,8.6-8.8h87.1c4.8,0.1,8.6,4,8.6,8.8C441.4,197.9,437.6,201.8,432.8,201.8z M432.8,245.6
		h-87.1c-4.8-0.1-8.6-4-8.6-8.8c0-4.8,3.8-8.7,8.6-8.8h87.1c4.8,0.1,8.6,4,8.6,8.8S437.6,245.5,432.8,245.6z M432.8,289.3h-87.1
		c-4.8-0.1-8.6-4-8.6-8.8c0-4.8,3.8-8.7,8.6-8.8h87.1c4.8,0.1,8.6,4,8.6,8.8S437.6,289.3,432.8,289.3z M432.8,333.1h-87.1
		c-4.8-0.1-8.6-4-8.6-8.8c0-4.8,3.8-8.7,8.6-8.8h87.1c4.8,0.1,8.6,4,8.6,8.8S437.6,333,432.8,333.1z M590.6,499.9
		c1-1.2,0-267,0.3-268.5c-1.6-51.9-77.1-52.1-78.8,0v266.9c0.2,1.2,0.4,2.3,0.7,3.4l30.6,71.4c1.4,3.2,4.5,5.3,8,5.3
		c3.5,0,6.7-2.1,8-5.3l30.6-71.4C590.4,501.1,590.6,500.5,590.6,499.9L590.6,499.9z M529.7,231.4c0.1-7.8,4.3-14.9,11-18.7
		c6.7-3.9,15-3.9,21.7,0c6.7,3.9,10.9,11,11,18.7v258.1h-13.1V237.1c0-4.8-3.9-8.8-8.8-8.8s-8.8,3.9-8.8,8.8v252.4h-13.1V231.4z
		 M551.6,547.4L534.2,507h34.7L551.6,547.4z"/>
</g>
</svg>
