<?xml version="1.0" encoding="utf-8"?>
<!-- Generator: Adobe Illustrator 26.0.1, SVG Export Plug-In . SVG Version: 6.00 Build 0)  -->
<svg version="1.1" id="Layer_1" xmlns="http://www.w3.org/2000/svg" xmlns:xlink="http://www.w3.org/1999/xlink" x="0px" y="0px"
	 viewBox="0 0 700 700" style="enable-background:new 0 0 700 700;" xml:space="preserve">
<style type="text/css">
	.st0{fill:#FFFFFF;}
</style>
<g>
	<path class="st0" d="M613.2,233.1c0-16.3-6.5-32-18-43.6c-11.6-11.6-27.2-18-43.6-18h-16.8v-16.8c0-16.3-6.5-32-18-43.6
		c-11.6-11.6-27.2-18-43.6-18H148.4c-16.3,0-32,6.5-43.6,18c-11.6,11.6-18,27.2-18,43.6v201.6c0,16.3,6.5,32,18,43.6
		c11.6,11.6,27.2,18,43.6,18h28v93.9c0,4.2,1.6,8.3,4.5,11.4c2.9,3.1,6.8,5,11,5.3c4.2,0.3,8.4-0.9,11.7-3.6l36.2-28.6l121.4,0
		l135.2,107c3.3,2.6,7.5,3.9,11.7,3.6c4.2-0.3,8.2-2.2,11-5.3c2.9-3.1,4.5-7.2,4.5-11.4v-93.9h28c16.3,0,32-6.5,43.6-18
		c11.6-11.6,18-27.2,18-43.6L613.2,233.1z M193.2,384.3l-44.8,0c-7.4,0-14.5-3-19.8-8.2s-8.2-12.4-8.2-19.8V154.7
		c0-7.4,3-14.5,8.2-19.8c5.2-5.2,12.4-8.2,19.8-8.2h324.8c7.4,0,14.5,2.9,19.8,8.2c5.2,5.3,8.2,12.4,8.2,19.8v201.6
		c0,7.4-2.9,14.5-8.2,19.8c-5.3,5.2-12.4,8.2-19.8,8.2h-140c-3.8,0-7.5,1.3-10.4,3.6L210,477.1v-76c0-4.5-1.8-8.7-4.9-11.9
		C201.9,386.1,197.7,384.3,193.2,384.3L193.2,384.3z M579.6,434.7L579.6,434.7c0,7.4-2.9,14.6-8.2,19.8c-5.2,5.2-12.4,8.2-19.8,8.2
		h-44.8c-4.5,0-8.7,1.8-11.9,4.9c-3.2,3.1-4.9,7.4-4.9,11.9v76l-112.8-89.2c-3-2.4-6.6-3.6-10.4-3.6h-84.4l56.7-44.8h134.2
		c16.3,0,32-6.5,43.6-18c11.6-11.6,18-27.2,18-43.6V205.1h16.8v0c7.4,0,14.5,3,19.8,8.2s8.2,12.4,8.2,19.8L579.6,434.7z"/>
</g>
</svg>
