<?xml version="1.0" encoding="utf-8"?>
<!-- Generator: Adobe Illustrator 26.0.1, SVG Export Plug-In . SVG Version: 6.00 Build 0)  -->
<svg version="1.1" id="Layer_1" xmlns="http://www.w3.org/2000/svg" xmlns:xlink="http://www.w3.org/1999/xlink" x="0px" y="0px"
	 viewBox="0 0 700 700" style="enable-background:new 0 0 700 700;" xml:space="preserve">
<g>
	<path d="M345,115.9c-129.4,0-234.6,105.3-234.6,234.6S215,585.2,345,585.2c129.4,0,234.6-104.7,234.6-234.6
		C579.6,221.2,474.3,115.9,345,115.9L345,115.9z M488.9,494.5c-3.4,3.4-7.8,5-12.9,5c-4.5,0-9-1.7-12.9-5l-70.6-71.1
		c-8.4,6.2-17.9,11.8-27.4,15.7c-15.7,6.7-33,10.1-50.4,10.1s-34.2-3.4-50.4-10.1c-15.1-6.7-29.1-15.7-40.9-27.4
		c-11.8-11.8-21.3-25.8-27.4-40.9c-6.7-15.7-10.1-33-10.1-50.4c0-17.4,3.4-34.2,10.1-50.4c6.7-15.1,15.7-29.1,27.4-40.9
		c11.8-11.8,25.8-21.3,40.9-27.4c15.7-6.7,33-10.1,50.4-10.1s34.2,3.4,50.4,10.1c15.1,6.7,29.1,15.7,40.9,27.4
		c11.8,11.8,21.3,25.8,27.4,40.9c6.7,15.7,10.1,33,10.1,50.4c0,17.4-3.4,34.2-10.1,50.4c-3.9,10.1-9.5,19-15.7,27.4l71.1,71.1
		C495.6,476,495.6,487.2,488.9,494.5z"/>
	<path d="M314.7,219.5c-55.4,0-100.8,45.4-100.8,100.8s45.4,100.8,100.8,100.8c24.1,0,46.5-8.4,63.8-23c5-4.5,10.1-9,14-14
		c14-17.4,23-39.8,23-63.8C415,264.9,370.2,219.5,314.7,219.5L314.7,219.5z M328.7,244.2c-1.7,0.6-2.8,1.1-4.5,1.7
		c-1.7,0.6-2.8,1.1-4.5,1.7c-0.6,0-0.6,0.6-1.1,0.6l-1.1,0.6c-0.6,0.6-1.7,0.6-2.2,1.1c-5.6,2.2-10.6,5-15.7,7.8
		c-10.1,6.2-19,12.9-26.9,20.7c-7.8,7.8-14.6,16.8-20.7,26.9c-2.8,5-5.6,10.1-7.8,15.7c-0.6,0.6-0.6,1.7-1.1,2.2l-0.6,1.1
		c0,0.6-0.6,0.6-0.6,1.1c-0.6,1.7-1.1,2.8-1.7,4.5c-0.6,1.7-1.1,2.8-1.7,4.5s-1.1,2.8-1.7,4.5c-0.6-1.7-1.1-3.4-1.7-5
		s-0.6-3.4-1.1-5c0-0.6,0-1.7-0.6-2.2v-2.2V322v-2.8c0-6.7,1.1-13.4,2.8-20.2c3.9-13.4,11.2-25.8,21.3-35.8
		c10.1-10.1,22.4-17.4,35.8-21.3c6.7-1.7,13.4-2.8,20.2-2.8h2.8h2.2h2.2c0.6,0,1.7,0,2.2,0.6c1.7,0.6,3.4,0.6,5,1.1
		c1.7,0.6,3.4,1.1,5,1.7C331.5,243,329.8,243.6,328.7,244.2L328.7,244.2z"/>
</g>
</svg>
