<?xml version="1.0" encoding="utf-8"?>
<!-- Generator: Adobe Illustrator 26.0.1, SVG Export Plug-In . SVG Version: 6.00 Build 0)  -->
<svg version="1.1" id="Layer_1" xmlns="http://www.w3.org/2000/svg" xmlns:xlink="http://www.w3.org/1999/xlink" x="0px" y="0px"
	 viewBox="0 0 700 700" style="enable-background:new 0 0 700 700;" xml:space="preserve">
<style type="text/css">
	.st0{fill-rule:evenodd;clip-rule:evenodd;fill:#FFFFFF;}
</style>
<g>
	<path class="st0" d="M350,416.4c-20,0-39.2-7.9-53.3-22.1c-14.1-14.1-22.1-33.3-22.1-53.3c0-20,7.9-39.2,22.1-53.3
		c14.1-14.1,33.3-22.1,53.3-22.1c20,0,39.2,7.9,53.3,22.1c14.1,14.1,22.1,33.3,22.1,53.3c0,20-8,39.2-22.1,53.3
		C389.2,408.4,370,416.4,350,416.4z M395.2,64h-90.4c-5.3,0.1-10.3,2-14.3,5.4c-4,3.4-6.7,8.1-7.6,13.3l-8.4,47.9
		c-6.7,2.4-13.2,5.1-19.6,8.1l-39.9-27.9v0c-4.4-3.1-9.7-4.5-15-4c-5.3,0.5-10.3,2.8-14.1,6.6l-63.3,63.3c-3.8,3.8-6.1,8.8-6.6,14.1
		c-0.5,5.3,1,10.6,4,15l27.9,39.9c-3,6.4-5.7,13-8.1,19.6l-47.9,8.4c-5.3,0.9-10,3.7-13.5,7.8c-3.4,4.1-5.3,9.3-5.3,14.6v89.6
		c0,5.3,1.9,10.5,5.3,14.6c3.4,4.1,8.2,6.8,13.5,7.8l47.9,8.4c2.4,6.7,5.1,13.2,8.1,19.6l-27.9,39.9c-3.1,4.4-4.5,9.7-4,15
		c0.5,5.3,2.8,10.3,6.6,14.1l63.3,63.3c3.8,3.8,8.8,6.1,14.1,6.6c5.3,0.5,10.6-1,15-4l39.9-27.9c6.4,3,13,5.7,19.6,8.1l8.4,47.9h0
		c0.9,5.3,3.7,10,7.8,13.5c4.1,3.4,9.3,5.3,14.6,5.3h89.6c5.3,0,10.5-1.9,14.6-5.3c4.1-3.4,6.8-8.2,7.8-13.5l8.4-47.9
		c6.7-2.4,13.2-5.1,19.6-8.1l39.9,27.9c4.4,3.1,9.7,4.5,15,4c5.3-0.5,10.3-2.8,14.1-6.6l63.3-63.3c3.8-3.8,6.1-8.8,6.6-14.1
		c0.5-5.3-1-10.6-4-15l-27.9-39.9c3-6.4,5.7-13,8.1-19.6l47.9-8.4h0c5.3-0.9,10-3.7,13.5-7.8c3.4-4.1,5.3-9.3,5.3-14.6v-89.6
		c0-5.3-1.9-10.5-5.3-14.6c-3.4-4.1-8.2-6.8-13.5-7.8l-47.9-8.4c-2.4-6.7-5.1-13.2-8.1-19.6l27.9-39.9h0c3.1-4.4,4.5-9.7,4-15
		c-0.5-5.3-2.8-10.3-6.6-14.1l-63.3-63.3c-3.8-3.8-8.8-6.1-14.1-6.6s-10.6,1-15,4l-39.9,27.9c-6.4-3-13-5.7-19.6-8.1l-8.4-47.9v0
		c-0.9-5.2-3.6-9.9-7.6-13.3C405.6,66,400.5,64.1,395.2,64L395.2,64z M350,220.1c-32.1,0-62.8,12.7-85.5,35.4
		c-22.7,22.7-35.4,53.4-35.4,85.5s12.7,62.8,35.4,85.5c22.7,22.7,53.4,35.4,85.5,35.4s62.8-12.7,85.5-35.4
		c22.7-22.7,35.4-53.4,35.4-85.5c0-32-12.8-62.8-35.4-85.4C412.8,232.9,382,220.2,350,220.1L350,220.1z M581.6,366.7v-51.4
		l-42.6-7.5c-4.2-0.7-8.1-2.6-11.3-5.5c-3.2-2.8-5.5-6.5-6.6-10.6c-3.7-12.8-8.8-25.1-15.3-36.7c-2.1-3.7-3-8-2.8-12.2
		c0.2-4.2,1.6-8.4,4.1-11.8l24.8-35.4l-36.4-36.4l-35.4,24.8c-3.5,2.4-7.6,3.9-11.9,4.1c-4.3,0.2-8.5-0.8-12.2-2.8
		c-11.6-6.4-24-11.6-36.7-15.2c-4.1-1.2-7.8-3.5-10.6-6.6c-2.8-3.2-4.7-7.1-5.5-11.2l-7.5-42.6h-51.4l-7.5,42.6
		c-0.7,4.2-2.6,8.1-5.5,11.2c-2.8,3.2-6.5,5.5-10.6,6.6c-12.8,3.7-25.1,8.8-36.7,15.2c-3.7,2.1-8,3-12.2,2.8
		c-4.2-0.2-8.4-1.6-11.8-4.1l-35.4-24.8l-36.4,36.4l24.8,35.4h0c2.4,3.5,3.9,7.6,4.1,11.8c0.2,4.3-0.8,8.5-2.8,12.2
		c-6.4,11.6-11.6,24-15.2,36.7c-1.2,4.1-3.5,7.8-6.6,10.6c-3.2,2.8-7.1,4.7-11.3,5.5l-42.6,7.5v51.4l42.6,7.5v0
		c4.2,0.7,8.1,2.6,11.3,5.5c3.2,2.8,5.5,6.5,6.6,10.6c3.7,12.8,8.8,25.1,15.2,36.7c2.1,3.7,3,7.9,2.8,12.2s-1.6,8.4-4.1,11.8
		l-24.8,35.5l36.4,36.4l35.4-24.8v0c3.5-2.4,7.6-3.9,11.8-4.1c4.2-0.2,8.5,0.8,12.2,2.8c11.6,6.4,24,11.6,36.7,15.2
		c4.1,1.2,7.8,3.5,10.6,6.6c2.8,3.2,4.7,7.1,5.5,11.3l7.5,42.6h51.4l7.5-42.6h0c0.7-4.2,2.6-8.1,5.5-11.3c2.8-3.2,6.5-5.5,10.6-6.6
		c12.8-3.7,25.1-8.8,36.7-15.2c3.7-2.1,8-3,12.2-2.8c4.3,0.2,8.4,1.6,11.9,4.1l35.4,24.8l36.4-36.4l-24.8-35.4l0,0
		c-2.4-3.5-3.9-7.6-4.1-11.8c-0.2-4.3,0.7-8.5,2.8-12.2c6.4-11.6,11.6-24,15.3-36.8c1.2-4.1,3.5-7.8,6.6-10.6
		c3.2-2.8,7.1-4.7,11.3-5.5L581.6,366.7z"/>
</g>
</svg>
