<?xml version="1.0" encoding="utf-8"?>
<!-- Generator: Adobe Illustrator 26.0.1, SVG Export Plug-In . SVG Version: 6.00 Build 0)  -->
<svg version="1.1" id="Layer_1" xmlns="http://www.w3.org/2000/svg" xmlns:xlink="http://www.w3.org/1999/xlink" x="0px" y="0px"
	 viewBox="0 0 700 700" style="enable-background:new 0 0 700 700;" xml:space="preserve">
<style type="text/css">
	.st0{fill:#FFFFFF;}
</style>
<g>
	<path class="st0" d="M316.4,274.4v84.4c0.1,10.3,4.3,20.2,11.6,27.5c7.3,7.3,17.2,11.3,27.6,11.3h67.2V364h-67.2
		c-2.9,0-5.4-2.3-5.6-5.2v-84.4H316.4z"/>
	<path class="st0" d="M350,190.4c-27.3,0-54.2,6.5-78.5,18.8c-24.3,12.4-45.4,30.3-61.5,52.3v-48.7h-33.6v106.4h106.4v-33.6h-48.6
		c25.4-37.3,67.1-60.1,112.2-61.2c45.1-1.1,87.9,19.5,115.2,55.4c27.2,35.9,35.5,82.8,22.1,125.9c-13.3,43.1-46.6,77.1-89.3,91.4
		c-42.8,14.3-89.8,7.1-126.4-19.3S209.9,409.1,210,364v-5.6h-33.6v5.6c0,46,18.3,90.2,50.8,122.8c32.6,32.6,76.7,50.8,122.8,50.8
		s90.2-18.3,122.8-50.8c32.6-32.6,50.8-76.7,50.8-122.8s-18.3-90.2-50.8-122.8C440.2,208.7,396,190.4,350,190.4L350,190.4z"/>
</g>
</svg>
