<?xml version="1.0" encoding="utf-8"?>
<!-- Generator: Adobe Illustrator 26.0.1, SVG Export Plug-In . SVG Version: 6.00 Build 0)  -->
<svg version="1.1" id="Layer_1" xmlns="http://www.w3.org/2000/svg" xmlns:xlink="http://www.w3.org/1999/xlink" x="0px" y="0px"
	 viewBox="0 0 700 700" style="enable-background:new 0 0 700 700;" xml:space="preserve">
<style type="text/css">
	.st0{fill:#FFFFFF;}
</style>
<g>
	<path class="st0" d="M162.7,363.6c0,37.8,30.8,68.6,68.6,68.6s68.6-30.8,68.6-68.6S269.2,295,231.4,295S162.7,325.8,162.7,363.6
		L162.7,363.6z M277.2,363.6c0,25.3-20.6,45.9-45.9,45.9c-25.3,0-45.9-20.6-45.9-45.9c0-25.3,20.6-45.9,45.9-45.9
		C256.7,317.7,277.2,338.3,277.2,363.6z"/>
	<path class="st0" d="M128,542.2c0-39.8,32.4-72.2,72.2-72.2h62.2c39.8,0,72.2,32.4,72.2,72.2h22.7c0-52.4-42.6-95-95-95h-62.2
		c-52.4,0-95,42.6-95,95H128z"/>
	<path class="st0" d="M307.5,320.4l37.4-4.7l28.9-3.6c25,17.5,55.1,27.1,85.7,27.1c82.5,0,149.7-67.2,149.7-149.7
		c0-82.5-67.2-149.7-149.7-149.7c-82.6,0-149.7,67.2-149.7,149.7c0,26,6.6,51.2,19.3,73.6l-8.3,22L307.5,320.4z M459.6,62.5
		c70.1,0,127,56.8,127,127c0,70.1-56.8,127-127,127c-30.1,0-57.7-10.5-79.5-28l-38,4.7l12.3-32.5c-13.8-20.3-21.8-44.8-21.8-71.1
		C332.6,119.3,389.5,62.5,459.6,62.5L459.6,62.5z"/>
	<path class="st0" d="M453,147.6c2.4,0,4.6,0.4,6.5,1.1c2,0.7,3.6,1.7,5,3c1.4,1.3,2.4,2.8,3.1,4.5s1.1,3.7,1.1,5.7
		c0,2.4-0.3,4.6-1,6.5c-0.7,2-1.7,3.9-3,5.7s-3,3.7-4.8,5.5c-1.9,1.8-4.1,3.8-6.6,5.9c-2.4,2-4.5,4-6.3,6c-1.8,2-3.3,4.2-4.5,6.4
		c-1.2,2.2-2.1,4.6-2.7,7.1s-0.9,5.3-0.9,8.4c0,1.9,0.2,4,0.5,6.1c0.4,2.2,0.9,4.1,1.6,5.8h26.3c-0.7-1.1-1.3-2.5-1.7-4.2
		s-0.6-3.3-0.6-4.9c0-2.3,0.3-4.4,0.9-6.2c0.6-1.8,1.5-3.6,2.6-5.2c1.2-1.6,2.6-3.3,4.4-4.9c1.8-1.7,3.8-3.5,6.1-5.4
		c3.5-2.9,6.5-5.7,9.2-8.3c2.7-2.7,4.9-5.5,6.7-8.4c1.8-2.9,3.2-6,4.1-9.3c0.9-3.3,1.4-7,1.4-11c0-6.4-1.1-11.9-3.3-16.4
		s-5.3-8.3-9.3-11.2c-4-2.9-8.6-5.1-13.9-6.4c-5.3-1.4-11.1-2.1-17.3-2.1c-6.5,0-12.7,0.8-18.8,2.3c-6.1,1.5-11.7,3.8-16.8,6.9v30.1
		c5-4.4,10.3-7.7,15.9-9.8C442.4,148.7,447.8,147.6,453,147.6L453,147.6z"/>
	<path class="st0" d="M455.6,236.4c-5.3,0-9.8,1.6-13.3,4.7c-3.5,3.1-5.3,7-5.3,11.7c0,4.5,1.8,8.5,5.3,11.8c3.5,3.2,8,4.8,13.3,4.8
		c5.3,0,9.7-1.6,13.2-4.7c3.4-3.1,5.1-7.1,5.1-11.9c0-4.7-1.7-8.6-5.2-11.7C465.3,238,460.9,236.4,455.6,236.4L455.6,236.4z"/>
</g>
</svg>
