<?xml version="1.0" encoding="UTF-8"?>
<svg width="700pt" height="700pt" version="1.1" viewBox="0 0 700 700" xmlns="http://www.w3.org/2000/svg">
 <path d="m118.11 264.74c-1.9375-5.1992-1.9375-10.922 0-16.121 39.922-108.62 130.95-178.62 231.89-178.62s191.96 70 231.89 178.62c1.9375 5.1914 1.9375 10.906 0 16.098-6.7227 18.363-15.16 36.051-25.199 52.828-3.1094 5.457-8.2812 9.4297-14.355 11.023s-12.531 0.67188-17.918-2.5547c-5.3867-3.2305-9.2422-8.4922-10.699-14.598-1.457-6.1094-0.39062-12.547 2.957-17.855 7.0547-11.801 13.18-24.137 18.316-36.891-34.465-85.332-106.29-140-184.99-140s-150.52 54.668-184.99 140c11.633 32.262 30.734 61.316 55.742 84.785 25.012 23.469 55.219 40.684 88.156 50.242 8.0469 2.0352 14.41 8.1914 16.707 16.172 2.2969 7.9766 0.17969 16.574-5.5586 22.574-5.7344 6.0039-14.227 8.5039-22.301 6.5703-41.73-11.879-79.914-33.785-111.23-63.812-31.312-30.031-54.801-67.266-68.414-108.46zm325.22-8.0703c-0.007812-31.375-15.777-60.648-41.977-77.91-26.199-17.266-59.316-20.211-88.152-7.8398 8.1172 6.0859 13.191 15.398 13.914 25.52 0.71875 10.117-2.9922 20.055-10.164 27.227-7.1758 7.1758-17.109 10.883-27.23 10.164s-19.43-5.793-25.52-13.91c-11.039 25.777-9.9023 55.152 3.0938 80 12.996 24.848 36.477 42.535 63.945 48.172 27.469 5.6328 56.02-1.3789 77.75-19.102 21.73-17.727 34.34-44.281 34.34-72.32zm35 233.33c6.1914 0 12.125-2.457 16.5-6.8359 4.375-4.375 6.8359-10.309 6.8359-16.496v-35h35c8.3359 0 16.039-4.4492 20.207-11.668s4.168-16.113 0-23.332-11.871-11.668-20.207-11.668h-35v-35c0-8.3359-4.4492-16.039-11.668-20.207s-16.113-4.168-23.332 0-11.668 11.871-11.668 20.207v35h-35c-8.3359 0-16.039 4.4492-20.207 11.668s-4.168 16.113 0 23.332 11.871 11.668 20.207 11.668h35v35c0 6.1875 2.457 12.121 6.8359 16.496 4.375 4.3789 10.309 6.8359 16.496 6.8359z"/>
</svg>
