<?xml version="1.0" encoding="UTF-8"?>
<svg width="700pt" height="700pt" version="1.1" viewBox="0 0 700 700" xmlns="http://www.w3.org/2000/svg" xmlns:xlink="http://www.w3.org/1999/xlink">
 <defs>
  <symbol id="f" overflow="visible">
   <path d="m39.078-2.3281c-2.0117 1.043-4.1094 1.8281-6.2969 2.3594s-4.4648 0.79688-6.8281 0.79688c-7.0859 0-12.699-1.9766-16.844-5.9375-4.1367-3.957-6.2031-9.3281-6.2031-16.109 0-6.7891 2.0664-12.164 6.2031-16.125 4.1445-3.9688 9.7578-5.9531 16.844-5.9531 2.3633 0 4.6406 0.26562 6.8281 0.79688s4.2852 1.3242 6.2969 2.375v8.7969c-2.0312-1.3828-4.0391-2.3984-6.0156-3.0469-1.9688-0.64453-4.0469-0.96875-6.2344-0.96875-3.9062 0-6.9844 1.2578-9.2344 3.7656-2.2422 2.5-3.3594 5.9531-3.3594 10.359 0 4.3867 1.1172 7.8359 3.3594 10.344 2.25 2.5 5.3281 3.75 9.2344 3.75 2.1875 0 4.2656-0.32031 6.2344-0.96875 1.9766-0.64453 3.9844-1.6602 6.0156-3.0469z"/>
  </symbol>
  <symbol id="e" overflow="visible">
   <path d="m16.031-40.953v9.0625h10.516v7.2812h-10.516v13.531c0 1.4805 0.28906 2.4805 0.875 3 0.59375 0.52344 1.7656 0.78125 3.5156 0.78125h5.2344v7.2969h-8.7344c-4.0312 0-6.8867-0.83594-8.5625-2.5156-1.6797-1.6875-2.5156-4.5391-2.5156-8.5625v-13.531h-5.0781v-7.2812h5.0781v-9.0625z"/>
  </symbol>
  <symbol id="d" overflow="visible">
   <path d="m26.594-27.234v-17.078h10.266v44.312h-10.266v-4.6094c-1.3984 1.875-2.9453 3.25-4.6406 4.125-1.6875 0.875-3.6406 1.3125-5.8594 1.3125-3.9297 0-7.1562-1.5625-9.6875-4.6875-2.5234-3.125-3.7812-7.1445-3.7812-12.062 0-4.9141 1.2578-8.9375 3.7812-12.062 2.5312-3.125 5.7578-4.6875 9.6875-4.6875 2.1953 0 4.1445 0.44531 5.8438 1.3281 1.707 0.88672 3.2578 2.2578 4.6562 4.1094zm-6.7188 20.656c2.1875 0 3.8516-0.79688 5-2.3906 1.1445-1.5938 1.7188-3.9102 1.7188-6.9531 0-3.0391-0.57422-5.3594-1.7188-6.9531-1.1484-1.5938-2.8125-2.3906-5-2.3906-2.168 0-3.8242 0.79688-4.9688 2.3906-1.1484 1.5938-1.7188 3.9141-1.7188 6.9531 0 3.043 0.57031 5.3594 1.7188 6.9531 1.1445 1.5938 2.8008 2.3906 4.9688 2.3906z"/>
  </symbol>
  <symbol id="c" overflow="visible">
   <path d="m21.875-6.5781c2.1758 0 3.8359-0.79688 4.9844-2.3906 1.1562-1.5938 1.7344-3.9102 1.7344-6.9531 0-3.0391-0.57812-5.3594-1.7344-6.9531-1.1484-1.5938-2.8086-2.3906-4.9844-2.3906-2.1875 0-3.8672 0.80469-5.0312 2.4062-1.168 1.6055-1.75 3.918-1.75 6.9375 0 3.0234 0.58203 5.3359 1.75 6.9375 1.1641 1.6055 2.8438 2.4062 5.0312 2.4062zm-6.7812-20.656c1.4062-1.8516 2.9609-3.2227 4.6719-4.1094 1.707-0.88281 3.6719-1.3281 5.8906-1.3281 3.9375 0 7.1641 1.5625 9.6875 4.6875 2.5195 3.125 3.7812 7.1484 3.7812 12.062 0 4.918-1.2617 8.9375-3.7812 12.062-2.5234 3.125-5.75 4.6875-9.6875 4.6875-2.2188 0-4.1836-0.44531-5.8906-1.3281-1.7109-0.88281-3.2656-2.2539-4.6719-4.1094v4.6094h-10.188v-44.312h10.188z"/>
  </symbol>
  <symbol id="b" overflow="visible">
   <path d="m20.938-23.672c2.2891 0 3.9375-0.42578 4.9375-1.2812 1-0.85156 1.5-2.2578 1.5-4.2188 0-1.9258-0.5-3.3047-1.5-4.1406-1-0.84375-2.6484-1.2656-4.9375-1.2656h-4.625v10.906zm-4.625 7.5781v16.094h-10.953v-42.516h16.734c5.6016 0 9.707 0.94531 12.312 2.8281 2.6133 1.875 3.9219 4.8438 3.9219 8.9062 0 2.8047-0.67969 5.1094-2.0312 6.9219-1.3555 1.8047-3.4023 3.1328-6.1406 3.9844 1.5 0.34375 2.8438 1.1211 4.0312 2.3281 1.1875 1.1992 2.3906 3.0234 3.6094 5.4688l5.9531 12.078h-11.688l-5.1719-10.562c-1.0547-2.125-2.1172-3.5781-3.1875-4.3594-1.0742-0.78125-2.5-1.1719-4.2812-1.1719z"/>
  </symbol>
  <symbol id="a" overflow="visible">
   <path d="m36.969-19.422v19.422h-10.25v-14.812c0-2.7891-0.0625-4.707-0.1875-5.75-0.125-1.0391-0.33984-1.8125-0.64062-2.3125-0.39844-0.65625-0.9375-1.1719-1.625-1.5469s-1.4648-0.5625-2.3281-0.5625c-2.1367 0-3.8125 0.82422-5.0312 2.4688-1.2109 1.6484-1.8125 3.9219-1.8125 6.8281v15.688h-10.188v-44.312h10.188v17.078c1.5391-1.8516 3.1719-3.2227 4.8906-4.1094 1.7266-0.88281 3.6406-1.3281 5.7344-1.3281 3.6875 0 6.4844 1.1328 8.3906 3.3906 1.9062 2.2617 2.8594 5.5469 2.8594 9.8594z"/>
  </symbol>
 </defs>
 <g>
  <path d="m525 163.33c0.027344-14.738-5.5234-28.941-15.539-39.754-10.016-10.812-23.75-17.434-38.449-18.531s-29.266 3.4102-40.777 12.613c-11.508 9.207-19.109 22.426-21.27 37.008-2.1602 14.578 1.2773 29.434 9.6211 41.582s20.98 20.688 35.363 23.898c-1.3906 13.91-8.1562 26.73-18.855 35.73-10.695 8.9961-24.484 13.465-38.426 12.453h-93.336c-5.6016 0-51.684-1.8672-57.633-48.066 19.055-3.8867 34.918-17.02 42.301-35.012 7.3828-17.992 5.3125-38.48-5.5195-54.633s-29-25.844-48.445-25.844c-19.449 0-37.617 9.6914-48.449 25.844-10.832 16.152-12.902 36.641-5.5195 54.633 7.3828 17.992 23.246 31.125 42.301 35.012 1.8359 19.988 11.242 38.516 26.293 51.789 15.055 13.277 34.613 20.293 54.672 19.613h35v47.832c-19.055 3.8906-34.918 17.02-42.301 35.012-7.3789 17.992-5.3125 38.48 5.5195 54.633 10.832 16.152 29 25.844 48.449 25.844s37.617-9.6914 48.449-25.844c10.832-16.152 12.898-36.641 5.5195-54.633-7.3828-17.992-23.246-31.121-42.301-35.012v-47.832h35c20.082 1.0039 39.77-5.8516 54.883-19.117 15.113-13.262 24.469-31.891 26.082-51.934 13.324-2.5508 25.344-9.6641 33.988-20.121 8.6445-10.453 13.375-23.598 13.379-37.164zm-326.67 0c0-9.2812 3.6875-18.184 10.254-24.746 6.5625-6.5664 15.465-10.254 24.746-10.254 9.2852 0 18.188 3.6875 24.75 10.254 6.5625 6.5625 10.25 15.465 10.25 24.746 0 9.2852-3.6875 18.188-10.25 24.75s-15.465 10.25-24.75 10.25c-9.2812 0-18.184-3.6875-24.746-10.25-6.5664-6.5625-10.254-15.465-10.254-24.75zm186.67 233.34c0 9.2812-3.6875 18.184-10.25 24.746-6.5664 6.5664-15.469 10.254-24.75 10.254s-18.184-3.6875-24.75-10.254c-6.5625-6.5625-10.25-15.465-10.25-24.746 0-9.2852 3.6875-18.188 10.25-24.75 6.5664-6.5625 15.469-10.25 24.75-10.25s18.184 3.6875 24.75 10.25c6.5625 6.5625 10.25 15.465 10.25 24.75zm81.668-198.33v-0.003907c-9.2852 0-18.188-3.6875-24.75-10.25s-10.25-15.465-10.25-24.75c0-9.2812 3.6875-18.184 10.25-24.746 6.5625-6.5664 15.465-10.254 24.75-10.254 9.2812 0 18.184 3.6875 24.746 10.254 6.5664 6.5625 10.254 15.465 10.254 24.746 0 9.2852-3.6875 18.188-10.254 24.75-6.5625 6.5625-15.465 10.25-24.746 10.25z"/>
  <use x="70" y="735" xlink:href="#f"/>
  <use x="220.503906" y="735" xlink:href="#e"/>
  <use x="287.953125" y="735" xlink:href="#d"/>
  <use x="350.015625" y="735" xlink:href="#c"/>
  <use x="450.105469" y="735" xlink:href="#b"/>
  <use x="534.386719" y="735" xlink:href="#a"/>
 </g>
</svg>
