<?xml version="1.0" encoding="UTF-8"?>
<svg width="700pt" height="700pt" version="1.1" viewBox="0 0 700 700" xmlns="http://www.w3.org/2000/svg" xmlns:xlink="http://www.w3.org/1999/xlink">
 <defs>
  <symbol id="n" overflow="visible">
   <path d="m30.25-1.8125c-1.5625 0.8125-3.1875 1.4219-4.875 1.8281-1.6875 0.41406-3.4492 0.625-5.2812 0.625-5.4922 0-9.8398-1.5312-13.047-4.5938-3.1992-3.0703-4.7969-7.2266-4.7969-12.469 0-5.2578 1.5977-9.4219 4.7969-12.484 3.207-3.0703 7.5547-4.6094 13.047-4.6094 1.832 0 3.5938 0.21094 5.2812 0.625 1.6875 0.40625 3.3125 1.0156 4.875 1.8281v6.8125c-1.5742-1.0703-3.125-1.8594-4.6562-2.3594-1.5234-0.5-3.1328-0.75-4.8281-0.75-3.0234 0-5.4023 0.96875-7.1406 2.9062-1.7305 1.9375-2.5938 4.6172-2.5938 8.0312 0 3.3984 0.86328 6.0625 2.5938 8 1.7383 1.9375 4.1172 2.9062 7.1406 2.9062 1.6953 0 3.3047-0.25 4.8281-0.75 1.5312-0.5 3.082-1.2852 4.6562-2.3594z"/>
  </symbol>
  <symbol id="i" overflow="visible">
   <path d="m22.141-17.969c-0.69922-0.32031-1.3906-0.5625-2.0781-0.71875-0.67969-0.15625-1.3594-0.23438-2.0469-0.23438-2.0312 0-3.5938 0.65234-4.6875 1.9531-1.0938 1.3047-1.6406 3.168-1.6406 5.5938v11.375h-7.8906v-24.688h7.8906v4.0469c1.0078-1.6133 2.1719-2.7891 3.4844-3.5312 1.3203-0.75 2.8984-1.125 4.7344-1.125 0.26953 0 0.55469 0.015625 0.85938 0.046875 0.3125 0.023438 0.75781 0.070312 1.3438 0.14062z"/>
  </symbol>
  <symbol id="a" overflow="visible">
   <path d="m28.438-12.406v2.2344h-18.453c0.19531 1.8555 0.86719 3.2461 2.0156 4.1719 1.1445 0.92969 2.7422 1.3906 4.7969 1.3906 1.6641 0 3.3672-0.24219 5.1094-0.73438 1.7383-0.48828 3.5312-1.2344 5.375-2.2344v6.0781c-1.875 0.71094-3.7461 1.2422-5.6094 1.5938-1.8672 0.36328-3.7305 0.54688-5.5938 0.54688-4.4688 0-7.9453-1.1328-10.422-3.4062-2.4805-2.2695-3.7188-5.457-3.7188-9.5625 0-4.0195 1.2109-7.1875 3.6406-9.5 2.4375-2.3125 5.7852-3.4688 10.047-3.4688 3.8828 0 6.9883 1.1719 9.3125 3.5156 2.332 2.3359 3.5 5.4609 3.5 9.375zm-8.1094-2.625c0-1.5-0.4375-2.707-1.3125-3.625-0.875-0.92578-2.0156-1.3906-3.4219-1.3906-1.5312 0-2.7773 0.43359-3.7344 1.2969-0.96094 0.85547-1.5547 2.0938-1.7812 3.7188z"/>
  </symbol>
  <symbol id="h" overflow="visible">
   <path d="m14.859-11.109c-1.6484 0-2.8867 0.28125-3.7188 0.84375-0.82422 0.55469-1.2344 1.3711-1.2344 2.4531 0 1 0.33203 1.7891 1 2.3594 0.66406 0.5625 1.5938 0.84375 2.7812 0.84375 1.4883 0 2.7383-0.53125 3.75-1.5938 1.0195-1.0703 1.5312-2.4062 1.5312-4v-0.90625zm12.062-2.9844v14.094h-7.9531v-3.6562c-1.0625 1.5-2.2578 2.5938-3.5781 3.2812-1.3242 0.67578-2.9336 1.0156-4.8281 1.0156-2.5625 0-4.6406-0.74219-6.2344-2.2344-1.5938-1.5-2.3906-3.4375-2.3906-5.8125 0-2.8945 0.99219-5.0195 2.9844-6.375 2-1.3516 5.1289-2.0312 9.3906-2.0312h4.6562v-0.60938c0-1.25-0.49609-2.1641-1.4844-2.75-0.99219-0.58203-2.5273-0.875-4.6094-0.875-1.6875 0-3.2617 0.17188-4.7188 0.51562-1.4609 0.33594-2.8125 0.83984-4.0625 1.5156v-6.0156c1.6953-0.41406 3.3945-0.72656 5.0938-0.9375 1.707-0.21875 3.4141-0.32812 5.125-0.32812 4.4453 0 7.6602 0.88281 9.6406 2.6406 1.9766 1.7617 2.9688 4.6172 2.9688 8.5625z"/>
  </symbol>
  <symbol id="g" overflow="visible">
   <path d="m12.406-31.703v7.0156h8.1406v5.6406h-8.1406v10.469c0 1.1484 0.22656 1.9219 0.6875 2.3281 0.45703 0.40625 1.3633 0.60938 2.7188 0.60938h4.0469v5.6406h-6.7656c-3.1172 0-5.3242-0.64844-6.625-1.9531-1.3047-1.3008-1.9531-3.5078-1.9531-6.625v-10.469h-3.9219v-5.6406h3.9219v-7.0156z"/>
  </symbol>
  <symbol id="f" overflow="visible">
   <path d="m20.594-21.078v-13.234h7.9375v34.312h-7.9375v-3.5781c-1.0859 1.4609-2.2812 2.5273-3.5938 3.2031s-2.8281 1.0156-4.5469 1.0156c-3.043 0-5.543-1.207-7.5-3.625-1.9492-2.4141-2.9219-5.5312-2.9219-9.3438 0-3.8008 0.97266-6.9102 2.9219-9.3281 1.957-2.4258 4.457-3.6406 7.5-3.6406 1.707 0 3.2188 0.34375 4.5312 1.0312 1.3203 0.6875 2.5234 1.75 3.6094 3.1875zm-5.2031 15.984c1.6875 0 2.9727-0.61328 3.8594-1.8438 0.89453-1.2383 1.3438-3.0352 1.3438-5.3906 0-2.3516-0.44922-4.1445-1.3438-5.375-0.88672-1.2383-2.1719-1.8594-3.8594-1.8594-1.6797 0-2.9648 0.62109-3.8594 1.8594-0.88672 1.2305-1.3281 3.0234-1.3281 5.375 0 2.3555 0.44141 4.1523 1.3281 5.3906 0.89453 1.2305 2.1797 1.8438 3.8594 1.8438z"/>
  </symbol>
  <symbol id="e" overflow="visible">
   <path d="m16.938-5.0938c1.6875 0 2.9727-0.61328 3.8594-1.8438 0.89453-1.2383 1.3438-3.0352 1.3438-5.3906 0-2.3516-0.44922-4.1445-1.3438-5.375-0.88672-1.2383-2.1719-1.8594-3.8594-1.8594-1.6992 0-3 0.625-3.9062 1.875-0.89844 1.2422-1.3438 3.0273-1.3438 5.3594 0 2.3438 0.44531 4.1367 1.3438 5.375 0.90625 1.2422 2.207 1.8594 3.9062 1.8594zm-5.25-15.984c1.082-1.4375 2.2852-2.5 3.6094-3.1875 1.3203-0.6875 2.8438-1.0312 4.5625-1.0312 3.0508 0 5.5508 1.2148 7.5 3.6406 1.957 2.418 2.9375 5.5273 2.9375 9.3281 0 3.8125-0.98047 6.9297-2.9375 9.3438-1.9492 2.418-4.4492 3.625-7.5 3.625-1.7188 0-3.2422-0.33984-4.5625-1.0156-1.3242-0.6875-2.5273-1.7539-3.6094-3.2031v3.5781h-7.8906v-34.312h7.8906z"/>
  </symbol>
  <symbol id="b" overflow="visible">
   <path d="m0.54688-24.688h7.8906l6.6406 16.75 5.6406-16.75h7.9062l-10.391 27.031c-1.043 2.7383-2.2617 4.6562-3.6562 5.75-1.3867 1.1016-3.2188 1.6562-5.5 1.6562h-4.5625v-5.1875h2.4688c1.3438 0 2.3164-0.21484 2.9219-0.64062 0.61328-0.42969 1.0859-1.1953 1.4219-2.2969l0.21875-0.67188z"/>
  </symbol>
  <symbol id="d" overflow="visible">
   <path d="m4.1406-32.922h8.5v29.719c0 4.1016-1.1172 7.1719-3.3438 9.2031-2.2305 2.0312-5.6016 3.0469-10.109 3.0469h-1.7188v-6.4219h1.3125c1.7695 0 3.1016-0.49609 4-1.4844 0.90625-0.98047 1.3594-2.4258 1.3594-4.3438z"/>
  </symbol>
  <symbol id="c" overflow="visible">
   <path d="m3.7969-34.312h7.8906v34.312h-7.8906z"/>
  </symbol>
  <symbol id="m" overflow="visible">
   <path d="m23.75-23.922v6.4375c-1.0742-0.73828-2.1523-1.2812-3.2344-1.625-1.0859-0.35156-2.2031-0.53125-3.3594-0.53125-2.2109 0-3.9297 0.64844-5.1562 1.9375-1.2188 1.2812-1.8281 3.0742-1.8281 5.375 0 2.3125 0.60938 4.1172 1.8281 5.4062 1.2266 1.2812 2.9453 1.9219 5.1562 1.9219 1.2266 0 2.3945-0.17969 3.5-0.54688 1.1133-0.375 2.1445-0.92188 3.0938-1.6406v6.4531c-1.2422 0.46094-2.4961 0.80078-3.7656 1.0312-1.2734 0.22656-2.5469 0.34375-3.8281 0.34375-4.4492 0-7.9336-1.1406-10.453-3.4219-2.5117-2.2891-3.7656-5.4727-3.7656-9.5469 0-4.0703 1.2539-7.25 3.7656-9.5312 2.5195-2.2891 6.0039-3.4375 10.453-3.4375 1.3008 0 2.5781 0.11719 3.8281 0.34375 1.2578 0.23047 2.5156 0.57422 3.7656 1.0312z"/>
  </symbol>
  <symbol id="l" overflow="visible">
   <path d="m15.547-19.641c-1.75 0-3.0859 0.63281-4 1.8906-0.91797 1.25-1.375 3.0586-1.375 5.4219 0 2.3672 0.45703 4.1797 1.375 5.4375 0.91406 1.2617 2.25 1.8906 4 1.8906 1.7188 0 3.0312-0.62891 3.9375-1.8906 0.91406-1.2578 1.375-3.0703 1.375-5.4375 0-2.3633-0.46094-4.1719-1.375-5.4219-0.90625-1.2578-2.2188-1.8906-3.9375-1.8906zm0-5.6562c4.25 0 7.5664 1.1523 9.9531 3.4531 2.3828 2.293 3.5781 5.4648 3.5781 9.5156 0 4.0625-1.1953 7.2422-3.5781 9.5312-2.3867 2.293-5.7031 3.4375-9.9531 3.4375-4.2617 0-7.5938-1.1445-10-3.4375-2.4062-2.2891-3.6094-5.4688-3.6094-9.5312 0-4.0508 1.2031-7.2227 3.6094-9.5156 2.4062-2.3008 5.7383-3.4531 10-3.4531z"/>
  </symbol>
  <symbol id="k" overflow="visible">
   <path d="m28.625-15.031v15.031h-7.9375v-11.516c0-2.125-0.054688-3.5859-0.15625-4.3906-0.09375-0.8125-0.25781-1.4102-0.48438-1.7969-0.3125-0.51953-0.73438-0.92188-1.2656-1.2031-0.53125-0.28906-1.1328-0.4375-1.7969-0.4375-1.6484 0-2.9453 0.64062-3.8906 1.9219-0.9375 1.2734-1.4062 3.0273-1.4062 5.2656v12.156h-7.8906v-24.688h7.8906v3.6094c1.1875-1.4375 2.4453-2.5 3.7812-3.1875 1.3438-0.6875 2.8203-1.0312 4.4375-1.0312 2.8516 0 5.0195 0.875 6.5 2.625 1.4766 1.75 2.2188 4.2969 2.2188 7.6406z"/>
  </symbol>
  <symbol id="j" overflow="visible">
   <path d="m23.078-23.922v6c-1.6875-0.70703-3.3203-1.2383-4.8906-1.5938-1.5742-0.35156-3.0586-0.53125-4.4531-0.53125-1.5 0-2.6172 0.1875-3.3438 0.5625-0.73047 0.375-1.0938 0.95312-1.0938 1.7344 0 0.63672 0.27344 1.125 0.82812 1.4688 0.55078 0.33594 1.5391 0.57812 2.9688 0.73438l1.3906 0.20312c4.0391 0.51172 6.7578 1.3555 8.1562 2.5312 1.3945 1.1797 2.0938 3.0234 2.0938 5.5312 0 2.6367-0.96875 4.6172-2.9062 5.9375-1.9375 1.3242-4.8359 1.9844-8.6875 1.9844-1.6367 0-3.3242-0.13281-5.0625-0.39062-1.7422-0.25-3.5273-0.63281-5.3594-1.1562v-6c1.5703 0.77344 3.1797 1.3516 4.8281 1.7344 1.6562 0.375 3.3359 0.5625 5.0469 0.5625 1.5391 0 2.7031-0.21094 3.4844-0.64062 0.78125-0.42578 1.1719-1.0547 1.1719-1.8906 0-0.70703-0.27344-1.2344-0.8125-1.5781-0.54297-0.34375-1.6094-0.61328-3.2031-0.8125l-1.3906-0.17188c-3.5117-0.4375-5.9766-1.25-7.3906-2.4375-1.4062-1.1953-2.1094-3.0078-2.1094-5.4375 0-2.6133 0.89453-4.5508 2.6875-5.8125 1.7891-1.2695 4.5391-1.9062 8.25-1.9062 1.4453 0 2.9727 0.11719 4.5781 0.34375 1.6016 0.21875 3.3438 0.5625 5.2188 1.0312z"/>
  </symbol>
 </defs>
 <path transform="matrix(9.0323 0 0 9.0323 60.968 -6.4178e-14)" d="m44 49c0 6.6273-5.3727 12-12 12s-12-5.3727-12-12c0-6.6277 5.3727-12 12-12s12 5.3722 12 12" fill="none" stroke="#000" stroke-linecap="round" stroke-linejoin="round" stroke-miterlimit="10" stroke-width="2"/>
 <path transform="matrix(9.0323 0 0 9.0323 60.968 -6.4178e-14)" d="m32 43v12" fill="none" stroke="#000" stroke-linecap="round" stroke-linejoin="round" stroke-miterlimit="10" stroke-width="2"/>
 <path transform="matrix(9.0323 0 0 9.0323 60.968 -6.4178e-14)" d="m38 49h-12" fill="none" stroke="#000" stroke-linecap="round" stroke-linejoin="round" stroke-miterlimit="10" stroke-width="2"/>
 <path transform="matrix(9.0323 0 0 9.0323 60.968 -6.4178e-14)" d="m63 23.099-21-3.0991-10-19-10 19-21 3.0991 16 14.901-4 21 8.333-4.5198c-0.84679-1.6443-1.3329-3.5039-1.3329-5.4799 0-6.6269 5.3731-12 12-12s12 5.3731 12 12c0 1.976-0.4861 3.8361-1.3329 5.4799l8.333 4.5198-4-21zm0 0" fill="none" stroke="#000" stroke-linecap="round" stroke-linejoin="round" stroke-miterlimit="10" stroke-width="2"/>
 <g>
  <use x="60.96875" y="695.484375" xlink:href="#n"/>
  <use x="94.109375" y="695.484375" xlink:href="#i"/>
  <use x="116.382813" y="695.484375" xlink:href="#a"/>
  <use x="147.011719" y="695.484375" xlink:href="#h"/>
  <use x="177.488281" y="695.484375" xlink:href="#g"/>
  <use x="199.074219" y="695.484375" xlink:href="#a"/>
  <use x="229.707031" y="695.484375" xlink:href="#f"/>
  <use x="277.753906" y="695.484375" xlink:href="#e"/>
  <use x="310.082031" y="695.484375" xlink:href="#b"/>
  <use x="355.242188" y="695.484375" xlink:href="#d"/>
  <use x="372.046875" y="695.484375" xlink:href="#a"/>
  <use x="402.675781" y="695.484375" xlink:href="#c"/>
  <use x="418.15625" y="695.484375" xlink:href="#c"/>
  <use x="433.636719" y="695.484375" xlink:href="#b"/>
  <use x="463.074219" y="695.484375" xlink:href="#m"/>
  <use x="489.84375" y="695.484375" xlink:href="#l"/>
  <use x="520.871094" y="695.484375" xlink:href="#k"/>
  <use x="553.023438" y="695.484375" xlink:href="#j"/>
 </g>
</svg>
