<?xml version="1.0" encoding="utf-8"?>
<!-- Generator: Adobe Illustrator 26.0.1, SVG Export Plug-In . SVG Version: 6.00 Build 0)  -->
<svg version="1.1" id="Layer_1" xmlns="http://www.w3.org/2000/svg" xmlns:xlink="http://www.w3.org/1999/xlink" x="0px" y="0px"
	 viewBox="0 0 700 700" style="enable-background:new 0 0 700 700;" xml:space="preserve">
<style type="text/css">
	.st0{fill:#FFFFFF;}
</style>
<g>
	<path class="st0" d="M350,495.8c-37.1,0-72.7-14.8-98.9-41.1S210,393,210,355.8v-105c0-6.4,5.2-11.7,11.7-11.7
		c65.1,0,120.5-43.7,121-44.1h0c4.3-3.4,10.3-3.4,14.6,0c0.5,0.4,56.2,44.1,121.1,44.1c3.1,0,6.1,1.2,8.2,3.4s3.4,5.2,3.4,8.2v105
		c0,37.1-14.8,72.7-41.1,98.9S387.1,495.8,350,495.8L350,495.8z M233.3,262.1v93.7c0,41.7,22.2,80.2,58.3,101
		c36.1,20.8,80.6,20.8,116.7,0c36.1-20.8,58.3-59.4,58.3-101v-93.7c-42-4.1-82.2-19.1-116.7-43.5C315.5,243,275.3,258,233.3,262.1
		L233.3,262.1z"/>
	<path class="st0" d="M338.3,408.3c-3.1,0-6.1-1.2-8.2-3.4l-46.7-46.7c-4.4-4.6-4.4-11.9,0.1-16.4c4.5-4.5,11.8-4.6,16.4-0.1
		l38.4,38.4l73.4-73.4c4.6-4.4,11.9-4.4,16.4,0.1s4.6,11.8,0.1,16.4l-81.7,81.7C344.4,407.1,341.4,408.3,338.3,408.3L338.3,408.3z"
		/>
	<path class="st0" d="M350,577.5c-61.9,0-121.2-24.6-165-68.3c-43.8-43.8-68.3-103.1-68.3-165s24.6-121.2,68.3-165
		c43.8-43.8,103.1-68.3,165-68.3s121.2,24.6,165,68.3c43.8,43.8,68.3,103.1,68.3,165c-0.1,61.9-24.7,121.2-68.4,164.9
		C471.2,552.8,411.9,577.4,350,577.5L350,577.5z M350,134.2c-55.7,0-109.1,22.1-148.5,61.5c-39.4,39.4-61.5,92.8-61.5,148.5
		s22.1,109.1,61.5,148.5c39.4,39.4,92.8,61.5,148.5,61.5s109.1-22.1,148.5-61.5c39.4-39.4,61.5-92.8,61.5-148.5
		c-0.1-55.7-22.2-109.1-61.6-148.4C459,156.4,405.7,134.2,350,134.2L350,134.2z"/>
</g>
</svg>
