<?xml version="1.0" encoding="utf-8"?>
<!-- Generator: Adobe Illustrator 26.0.1, SVG Export Plug-In . SVG Version: 6.00 Build 0)  -->
<svg version="1.1" id="Layer_1" xmlns="http://www.w3.org/2000/svg" xmlns:xlink="http://www.w3.org/1999/xlink" x="0px" y="0px"
	 viewBox="0 0 700 700" style="enable-background:new 0 0 700 700;" xml:space="preserve">
<style type="text/css">
	.st0{fill:#FFFFFF;}
</style>
<g>
	<path class="st0" d="M390.6,158.6c0,22.6-18.3,40.9-40.9,40.9s-40.9-18.3-40.9-40.9c0-22.6,18.3-40.9,40.9-40.9
		S390.6,136,390.6,158.6"/>
	<path class="st0" d="M424.2,268.9c2.2-23.5-17.9-43.7-44.8-43.7h-59.9c-26.3,0-47,20.2-44.8,43.7l2.8,70.6
		c0.6,14.6,14,26.3,30.2,26.3l5,124.9c0.6,9,8.4,15.7,18.5,15.7h36.4c10.1,0,17.9-6.7,18.5-15.7l5-124.9c16.2,0,29.7-11.8,30.2-26.3
		L424.2,268.9z"/>
	<path class="st0" d="M510.5,198.9c0,19.8-16,35.8-35.8,35.8c-19.8,0-35.8-16-35.8-35.8c0-19.8,16-35.8,35.8-35.8
		C494.4,163,510.5,179.1,510.5,198.9"/>
	<path class="st0" d="M501.5,257.7h-53.2c-2.2,0-5,0-7.3,0.6c0.6,3.9,0.6,7.8,0,11.8l-2.8,70c-0.6,14-7.8,26.3-19.6,34.2
		c0.6,0,0.6,0.6,1.1,1.1c5,3.9,11.2,6.7,18.5,6.7l4.5,110.3c0.6,7.8,7.3,14,16.2,14h31.9c8.4,0,15.7-6.2,16.2-14l4.5-110.3
		c14.6,0,26.3-10.1,26.9-23l2.8-62.2C543,276.2,524.5,257.7,501.5,257.7L501.5,257.7z"/>
	<path class="st0" d="M260.7,198.9c0,19.8-16,35.8-35.8,35.8c-19.8,0-35.8-16-35.8-35.8c0-19.8,16-35.8,35.8-35.8
		C244.7,163,260.7,179.1,260.7,198.9"/>
	<path class="st0" d="M261.3,340l-2.8-70c-0.6-3.9-0.6-7.8,0-11.8c-2.2-0.6-4.5-0.6-7.3-0.6H198c-23.5,0-41.4,17.9-39.2,38.6
		l2.8,62.2c0.6,12.9,12.3,23,26.9,23l4.5,110.3c0.6,7.8,7.3,14,16.2,14h31.9c8.4,0,15.7-6.2,16.2-14l4.5-110.3
		c7.3,0,14-2.8,18.5-6.7l1.1-1.1C269.7,366.9,261.8,354.6,261.3,340L261.3,340z"/>
</g>
</svg>
